<svg xmlns="http://www.w3.org/2000/svg" xmlns:xlink="http://www.w3.org/1999/xlink" width="129" height="129" viewBox="0 0 129 129"><defs><style>.a,.c{fill:#fff;}.a{stroke:#707070;}.b{clip-path:url(#a);}</style><clipPath id="a"><rect class="a" width="129" height="129" transform="translate(390 1286)"/></clipPath></defs><g class="b" transform="translate(-390 -1286)"><g transform="translate(390.002 1286)"><path class="c" d="M93.959,112.117a3.679,3.679,0,0,0,4.207-3.068l.867-5.762a3.585,3.585,0,0,1,1.945-2.673l5.218-2.606a3.659,3.659,0,0,0,1.611-4.956l-2.688-5.2a3.588,3.588,0,0,1,0-3.279l2.688-5.192a3.7,3.7,0,0,0,.231-2.817,3.667,3.667,0,0,0-1.842-2.14l-5.218-2.606a3.585,3.585,0,0,1-1.945-2.673l-.867-5.762a3.681,3.681,0,0,0-4.207-3.063l-5.772.965a3.575,3.575,0,0,1-3.125-1.016l-4.1-4.166a3.672,3.672,0,0,0-2.606-1.083A3.712,3.712,0,0,0,75.75,56.1l-4.1,4.166a3.556,3.556,0,0,1-3.125,1.016l-5.762-.949A3.682,3.682,0,0,0,58.552,63.4l-.862,5.762a3.6,3.6,0,0,1-1.945,2.673l-5.223,2.606A3.67,3.67,0,0,0,48.911,79.4L51.6,84.59a3.557,3.557,0,0,1,0,3.279l-2.689,5.2a3.671,3.671,0,0,0,1.611,4.956l5.223,2.606A3.6,3.6,0,0,1,57.69,103.3l.862,5.762a3.681,3.681,0,0,0,4.212,3.068l5.762-.949a3.539,3.539,0,0,1,3.125,1.011l4.1,4.156a3.643,3.643,0,0,0,5.213,0l4.1-4.156a3.548,3.548,0,0,1,3.125-1.011ZM78.351,107.91a22.231,22.231,0,1,1,22.231-22.226A22.25,22.25,0,0,1,78.351,107.91Z"/><path class="c" d="M78.357,66.653a18.994,18.994,0,1,0,19,18.994A19.018,19.018,0,0,0,78.357,66.653Z"/><path class="c" d="M111.465,116.278l-10.338-10.344-.523,3.489a6.159,6.159,0,0,1-2.458,4.038,6.081,6.081,0,0,1-4.577,1.093l-5.777-.944a1.149,1.149,0,0,0-.975.318l-.985.99,13.5,13.5a1.964,1.964,0,0,0,3.33-1.026l1.216-6.552,6.572-1.231a1.938,1.938,0,0,0,1.508-1.355A1.965,1.965,0,0,0,111.465,116.278Z"/><path class="c" d="M69.106,113.584l-5.952.97a6.145,6.145,0,0,1-7.044-5.146l-.523-3.474L45.253,116.278a1.966,1.966,0,0,0,1.021,3.325l6.567,1.226,1.231,6.562a1.956,1.956,0,0,0,3.314,1.031l13.5-13.5-.985-1A1.112,1.112,0,0,0,69.106,113.584Z"/><path class="c" d="M84.247,21.636H35.838a3.158,3.158,0,0,0,0,6.316H84.247a3.158,3.158,0,0,0,0-6.316Z"/><path class="c" d="M84.247,37.819H35.838a3.153,3.153,0,1,0,0,6.306H84.247a3.153,3.153,0,1,0,0-6.306Z"/><path class="c" d="M50.651,103.723l-2.386-1.19a8.355,8.355,0,0,1-1.678-1.144H26.208a2.533,2.533,0,0,1-2.529-2.524V9.256a2.532,2.532,0,0,1,2.529-2.535H94.026a2.536,2.536,0,0,1,2.529,2.535V55.468a8.76,8.76,0,0,1,6.619,7.188l.1-53.4A9.258,9.258,0,0,0,94.026,0H26.208a9.277,9.277,0,0,0-9.261,9.261V98.874a9.278,9.278,0,0,0,9.261,9.266H46.243Z"/></g></g></svg>