<svg xmlns="http://www.w3.org/2000/svg" xmlns:xlink="http://www.w3.org/1999/xlink" width="129" height="129" viewBox="0 0 129 129"><defs><style>.a,.d{fill:#fff;}.a{stroke:#707070;}.b{clip-path:url(#a);}.c{clip-path:url(#b);}</style><clipPath id="a"><rect class="a" width="129" height="129" transform="translate(390 1286)"/></clipPath><clipPath id="b"><rect class="a" width="131" height="129" transform="translate(388 1286)"/></clipPath></defs><g class="b" transform="translate(-390 -1286)"><g class="c"><g transform="translate(388 1284.998)"><path class="d" d="M125.573,54.05V46.143l-.592-2.195a43,43,0,0,0-8.093-9.588,37.41,37.41,0,0,0-16.972-8.819V11.018c-31.806,2.3-35.133,27.273-35.133,27.273v.229c-.026.026-.06.06-.086.091a46.64,46.64,0,0,0-4.161-4.252,36.163,36.163,0,0,0-24.171-9.605A35.377,35.377,0,0,0,12.371,34.39a41.151,41.151,0,0,0-7.855,9.636l-.557,2.117V54.05H0v65.936H131V54.05h-5.427ZM23.454,106.609a25.061,25.061,0,0,1,12.919-3.586,25.673,25.673,0,0,1,13.04,3.586Zm36.87-3.012a36.057,36.057,0,0,0-23.951-9.428h-.017a35.14,35.14,0,0,0-23.5,9.216V47.4a34.557,34.557,0,0,1,5.9-6.792,26.205,26.205,0,0,1,17.62-6.961A27.188,27.188,0,0,1,54.62,41a36.724,36.724,0,0,1,4.809,5.189c.372.48.665.929.894,1.266C60.324,47.452,60.324,103.6,60.324,103.6ZM92.73,18.74v66.4s-11.973-2.135-23.41,8.244V47.249h0V42.025S73.615,22.564,92.73,18.74ZM79.811,106.609a25.138,25.138,0,0,1,12.911-3.586,25.755,25.755,0,0,1,13.062,3.586ZM116.7,103.6a36.062,36.062,0,0,0-23.976-9.428A35.2,35.2,0,0,0,69.2,103.385v-.354C79.15,89.52,99.92,93.115,99.92,93.115V34.7A29.472,29.472,0,0,1,111,40.992a35.675,35.675,0,0,1,4.775,5.189c.38.48.683.929.92,1.266V103.6Z"/></g></g></g></svg>