<svg xmlns="http://www.w3.org/2000/svg" xmlns:xlink="http://www.w3.org/1999/xlink" width="129" height="129" viewBox="0 0 129 129"><defs><style>.a,.c{fill:#fff;}.a{stroke:#707070;}.b{clip-path:url(#a);}</style><clipPath id="a"><rect class="a" width="129" height="129" transform="translate(390 1286)"/></clipPath></defs><g class="b" transform="translate(-390 -1286)"><g class="b"><g transform="translate(390 1286)"><path class="c" d="M75.4,63.839l-6.687-20.06a2.09,2.09,0,0,0-3.965,0L58.06,63.839a2.09,2.09,0,0,0,0,1.321l6.687,20.06a2.09,2.09,0,0,0,3.965,0L75.4,65.161A2.09,2.09,0,0,0,75.4,63.839ZM66.729,77.952,62.245,64.5l4.484-13.452L71.213,64.5Z"/><path class="c" d="M104.621,13.374H86.789a6.513,6.513,0,0,0-2.368.445V6.548A6.555,6.555,0,0,0,77.874,0H55.584a6.555,6.555,0,0,0-6.548,6.548V18.276a6.513,6.513,0,0,0-2.368-.445H24.379a6.555,6.555,0,0,0-6.548,6.548v98.073A6.555,6.555,0,0,0,24.379,129H46.668a6.522,6.522,0,0,0,4.458-1.758A6.522,6.522,0,0,0,55.584,129H77.874a6.522,6.522,0,0,0,4.458-1.758A6.522,6.522,0,0,0,86.789,129h17.832a6.555,6.555,0,0,0,6.548-6.548V19.921A6.555,6.555,0,0,0,104.621,13.374Zm-82.61,24.24H49.037v71.6H22.011ZM53.216,24.379V24.24H80.242V104.76H53.216Zm27.026-4.458v.139H53.216V15.324H80.242ZM53.216,108.94H80.242v4.737H53.216ZM84.421,33.156h22.568v76.063H84.421Zm2.368-15.6h17.832a2.371,2.371,0,0,1,2.368,2.368v9.055H84.421V19.921A2.371,2.371,0,0,1,86.789,17.553ZM55.584,4.179H77.874a2.371,2.371,0,0,1,2.368,2.368v4.6H53.216v-4.6A2.371,2.371,0,0,1,55.584,4.179ZM24.379,22.011H46.668a2.371,2.371,0,0,1,2.368,2.368v9.055H22.011V24.379A2.371,2.371,0,0,1,24.379,22.011Zm22.289,102.81H24.379a2.371,2.371,0,0,1-2.368-2.368V113.4H49.037v9.055A2.371,2.371,0,0,1,46.668,124.821Zm31.205,0H55.584a2.371,2.371,0,0,1-2.368-2.368v-4.6H80.242v4.6A2.371,2.371,0,0,1,77.874,124.821Zm26.747,0H86.789a2.371,2.371,0,0,1-2.368-2.368V113.4h22.568v9.055A2.371,2.371,0,0,1,104.621,124.821Z"/><path class="c" d="M104.374,70.526l-6.687-20.06a2.09,2.09,0,0,0-3.965,0l-6.687,20.06a2.09,2.09,0,0,0,0,1.321l6.687,20.06a2.09,2.09,0,0,0,3.965,0l6.687-20.06A2.09,2.09,0,0,0,104.374,70.526ZM95.705,84.639,91.221,71.187l4.484-13.453,4.484,13.453Z"/><path class="c" d="M44.193,72.755l-6.687-20.06a2.09,2.09,0,0,0-3.965,0l-6.687,20.06a2.09,2.09,0,0,0,0,1.321l6.687,20.06a2.09,2.09,0,0,0,3.965,0l6.687-20.06A2.09,2.09,0,0,0,44.193,72.755ZM35.524,86.868,31.04,73.416l4.484-13.452,4.484,13.452Z"/></g></g></g></svg>