<svg xmlns="http://www.w3.org/2000/svg" xmlns:xlink="http://www.w3.org/1999/xlink" width="129" height="129" viewBox="0 0 129 129"><defs><style>.a{fill:none;}.b,.e{fill:#fff;}.b{stroke:#707070;}.c{clip-path:url(#a);}.d{clip-path:url(#b);}</style><clipPath id="a"><rect class="a" width="129" height="129" transform="translate(390 1286)"/></clipPath><clipPath id="b"><rect class="b" width="129" height="129" transform="translate(390 1286)"/></clipPath></defs><g class="c" transform="translate(-390 -1286)"><g class="d"><g transform="translate(389.999 1286)"><rect class="e" width="49.799" height="9.96" transform="translate(44.879 59.759)"/><path class="e" d="M64.849,109.558H15a4.988,4.988,0,0,1-4.98-4.98V19.92h99.6V61.925a14.674,14.674,0,0,1,9.96-1.23V14.94A14.942,14.942,0,0,0,104.638,0H15A14.942,14.942,0,0,0,.06,14.94v89.639A14.945,14.945,0,0,0,15,119.518H61.935Z"/><rect class="e" width="49.799" height="9.96" transform="translate(44.879 39.839)"/><path class="e" d="M44.879,89.639H80.217l10.01-9.96H44.879Z"/><rect class="e" width="9.96" height="9.96" transform="translate(24.959 59.759)"/><rect class="e" width="9.96" height="9.96" transform="translate(24.959 39.839)"/><rect class="e" width="9.96" height="9.96" transform="translate(24.959 79.679)"/><path class="e" d="M127.367,79.35l-7.555-7.569a5.29,5.29,0,0,0-7.5-.045l-6.076,6.115,15.089,15.154,6.08-6.12A5.335,5.335,0,0,0,127.367,79.35Z"/><path class="e" d="M76.477,107.078a2.149,2.149,0,0,0-.747,1.061l-5.264,18A2.224,2.224,0,0,0,72.6,129a2.085,2.085,0,0,0,.627-.095l17.938-5.289a2.154,2.154,0,0,0,1.016-.687l24.6-24.476L101.028,82.642ZM78.862,122.6l-2.1-2.116,2.983-10.194,7.629,1.574,1.509,7.779Z"/></g></g></g></svg>