<svg xmlns="http://www.w3.org/2000/svg" xmlns:xlink="http://www.w3.org/1999/xlink" width="387.92" height="431.769" viewBox="0 0 387.92 431.769"><defs><style>.a{fill:#9f1c3b;}.am,.b{fill:#f25050;}.c{fill:#eee;}.d{fill:#0caaba;}.e{fill:#d63c3c;}.f{fill:#99adc6;}.g{fill:#7f90a5;}.h{fill:#8b9bb1;}.i{fill:#114c63;}.j{fill:#77d6e5;}.k{fill:#347ada;}.l{fill:#3a87f2;}.m{fill:#bc7800;}.n{fill:#13133d;}.o{fill:url(#c);}.p{fill:url(#d);}.q{fill:url(#e);}.am,.r{opacity:0.2;}.r{fill:url(#h);}.s{fill:url(#k);}.al,.ar,.as,.t{opacity:0.28;}.t{fill:url(#l);}.u{fill:#ace0f9;}.v{fill:#d2f4ff;}.w{fill:#e6f7ff;}.x{fill:#b9e2ef;}.y{fill:#d4edfc;}.z{fill:#d4f7ff;}.aa{fill:#a3d6e2;}.ab{fill:#e9f8ff;}.ac{fill:#c3e1ea;}.ad{fill:#7c1419;}.ae{fill:#b31d24;}.af{fill:#c82029;}.ag{fill:#a8dae2;}.ah{fill:url(#m);}.ai{fill:url(#n);}.aj{fill:url(#o);}.ak{fill:#d5d8db;}.al{fill:url(#p);}.an{fill:url(#q);}.ao,.ap,.as{fill:#40424c;}.ap{opacity:0.27;}.aq{fill:url(#r);}.ar{fill:url(#s);}.at{fill:#ff3d60;}.au{filter:url(#i);}.av{filter:url(#f);}.aw{filter:url(#a);}</style><filter id="a" x="164.961" y="203.539" width="221.801" height="228.229" filterUnits="userSpaceOnUse"><feOffset dy="3" input="SourceAlpha"/><feGaussianBlur stdDeviation="3" result="b"/><feFlood flood-opacity="0.161"/><feComposite operator="in" in2="b"/><feComposite in="SourceGraphic"/></filter><linearGradient id="c" x1="480.45" y1="15.684" x2="470.085" y2="-7.483" gradientUnits="objectBoundingBox"><stop offset="0.01" stop-color="#dea595"/><stop offset="0.99" stop-color="#e2837a"/></linearGradient><linearGradient id="d" x1="677.045" y1="17.089" x2="714.303" y2="-1.29" gradientUnits="objectBoundingBox"><stop offset="0.01" stop-color="#55cbe6"/><stop offset="0.99" stop-color="#78cbe6"/></linearGradient><linearGradient id="e" x1="69.234" y1="1.472" x2="67.746" y2="-0.66" xlink:href="#c"/><filter id="f" x="216.499" y="42.209" width="79.41" height="141.532" filterUnits="userSpaceOnUse"><feOffset dx="12" dy="12" input="SourceAlpha"/><feGaussianBlur stdDeviation="3" result="g"/><feFlood flood-opacity="0.161"/><feComposite operator="in" in2="g"/><feComposite in="SourceGraphic"/></filter><linearGradient id="h" x1="61.6" y1="0.502" x2="60.595" y2="0.502" xlink:href="#d"/><filter id="i" x="222.902" y="109.512" width="143.203" height="217.622" filterUnits="userSpaceOnUse"><feOffset dx="15" dy="15" input="SourceAlpha"/><feGaussianBlur stdDeviation="3" result="j"/><feFlood flood-opacity="0.161"/><feComposite operator="in" in2="j"/><feComposite in="SourceGraphic"/></filter><linearGradient id="k" x1="-5.887" y1="0.876" x2="-6.467" y2="0.399" xlink:href="#c"/><linearGradient id="l" x1="32.437" y1="0.506" x2="31.445" y2="0.506" xlink:href="#c"/><linearGradient id="m" x1="95.27" y1="0.992" x2="95.071" y2="-0.307" xlink:href="#c"/><linearGradient id="n" x1="75.172" y1="1.095" x2="75.024" y2="-0.307" xlink:href="#c"/><linearGradient id="o" x1="-2.735" y1="1.069" x2="-3.158" y2="-0.415" xlink:href="#c"/><linearGradient id="p" x1="-2.51" y1="0.498" x2="-3.51" y2="0.498" xlink:href="#c"/><linearGradient id="q" x1="34.56" y1="1.696" x2="31.483" y2="-10.796" xlink:href="#c"/><linearGradient id="r" x1="57.118" y1="1.243" x2="56.212" y2="-2.926" xlink:href="#c"/><linearGradient id="s" x1="60.172" y1="0.518" x2="59.165" y2="0.518" xlink:href="#c"/></defs><g transform="translate(-129.814 -87.15)"><g transform="translate(129.814 116.698)"><g transform="translate(31.11 86.396)"><g transform="translate(0 71.276)"><path class="a" d="M181.072,277.309,384.238,143.4l-137.772-90L43.3,187.313Z" transform="translate(-43.3 -53.4)"/></g><g transform="translate(142.851 93.595)"><g class="aw" transform="matrix(1, 0, 0, 1, -173.96, -209.54)"><path class="b" d="M42.4,266.73,245.566,132.816,246.2,56.5,42.4,190.413Z" transform="translate(131.56 153.04)"/></g></g><g transform="translate(3.809 140.393)"><path class="c" d="M75.3,124.917l133.963,88.556V151.556L75.935,63c0,.72,3.809,11.519,3.809,33.118C79.109,118.437,75.3,124.917,75.3,124.917Z" transform="translate(-75.3 -63)"/></g><g transform="translate(0 133.913)"><path class="b" d="M74.5,62.1v6.48l137.772,90v64.8l-137.772-90v5.04l142.851,93.6V155.7Z" transform="translate(-74.5 -62.1)"/></g><g transform="translate(0)"><path class="a" d="M185.251,271.009,389.052,137.1,245.566,43.5,42.4,177.413Z" transform="translate(-42.4 -43.5)"/><path class="d" d="M363.317,129.036,233.8,44.8,44.6,169.354,173.483,254.31Z" transform="translate(-30.632 -35.44)"/><path class="e" d="M328.858,118.5l-110.472-72L47.6,158.814l110.471,72.716Z" transform="translate(-15.22 -24.901)"/></g></g><g transform="translate(15.237 31.678)"><g transform="translate(153.644 99.355)"><path class="f" d="M40.8,228.251,259.838,85.7v-36L40.8,192.253Z" transform="translate(-40.8 -49.7)"/></g><path class="g" d="M413.483,135.255,258.569,35.9,40.8,178.453l153.644,99.355Z" transform="translate(-40.8 -35.9)"/><g transform="translate(0 142.553)"><path class="h" d="M228.944,155.055,75.3,55.7v4.32l3.809,2.16V89.538L75.3,87.378v5.04l153.644,98.635Z" transform="translate(-75.3 -55.7)"/><path class="i" d="M221.926,178.994V151.635L75.9,56.6V83.959Z" transform="translate(-72.091 -50.12)"/><path class="c" d="M221.926,178.994V151.635L75.9,56.6V83.959Z" transform="translate(-72.091 -50.12)"/></g><path class="i" d="M98.9,61.96l3.809-2.16v4.32Z" transform="translate(-98.9 112.271)"/><path class="j" d="M204.989,119.516,168.8,143.995,46.9,64.079,83.724,39.6Z" transform="translate(128.965 -12.961)"/><g transform="translate(76.822 72.716)"><path class="j" d="M133.452,169.114h0L244.559,96.4c.635,0,.635-.72.635-.72,0-.72,0-.72-.635-.72L170.276,46h-1.27L58.535,118c-.635,0-.635.72-.635.72,0,.72,0,.72.635.72l74.917,49.678ZM242.019,94.958,133.452,166.234,61.074,118.716,169.641,47.44Z" transform="translate(-57.9 -46)"/></g></g><g transform="translate(0)"><g transform="translate(144.756 96.475)"><path class="k" d="M46.2,223.451,255.08,87.378V44.9L46.2,180.973Z" transform="translate(-46.2 -44.9)"/></g><g transform="translate(0.635)"><path class="l" d="M399.2,127.975,254.445,31.5,46.2,167.573l144.121,96.475Z" transform="translate(-46.2 -31.5)"/></g><g transform="translate(0 136.073)"><path class="k" d="M223.856,189.353V146.875L79.1,50.4v5.76l3.174,2.16V92.158L79.735,90v5.04Z" transform="translate(-79.1 -50.4)"/><path class="m" d="M218.007,176.054v-7.2l-.635-26.639L79.6,51.5V85.338Z" transform="translate(-76.426 -43.58)"/><path class="c" d="M218.007,175.954l-.635-33.838L79.6,51.4V85.238Z" transform="translate(-76.426 -44.2)"/></g></g></g><path class="n" d="M66.124,70.876c1.9.72,15.872,11.519,12.7,16.559s-19.682-4.32-22.856-7.92C49.617,73.036,56.6,64.4,66.124,70.876Z" transform="translate(357.646 315.089)"/><path class="n" d="M47.559,63.758c.635,3.6,14.6,10.8,15.872,12.239,1.27.72,10.793,2.88,12.063-.72,1.27-4.32-5.079-10.8-10.793-15.119-5.714-3.6-10.158-5.76-12.063-5.04C51.369,55.839,45.655,56.559,47.559,63.758Z" transform="translate(401.606 230.771)"/><path class="o" d="M58.9,35.1a37.731,37.731,0,0,1,1.9,5.04c-1.27-2.16-1.27-3.6-1.9-5.04Z" transform="translate(342.014 107.517)"/><path class="p" d="M60.07,42.18c-.635-2.16-.635-4.32-1.27-6.48A23.439,23.439,0,0,1,60.07,42.18Z" transform="translate(343.384 111.237)"/><path class="q" d="M68.4,35.1a37.727,37.727,0,0,1,1.9,5.04,23.439,23.439,0,0,1,1.27,6.48c.635,5.76.635,12.239-2.54,19.439-3.809,9.36-3.174,7.2-2.54,22.319v1.44a39.926,39.926,0,0,1-7.619-21.6C56.968,51.659,67.761,35.1,68.4,35.1Z" transform="translate(332.517 107.517)"/><g class="av" transform="matrix(1, 0, 0, 1, 129.81, 87.15)"><path class="b" d="M60.5,81.074a31.547,31.547,0,0,1-1.9-10.08c.635-9.36,3.809-12.959,3.809-12.959l15.872-10.08s22.856-13.679,23.491-14.4,2.54,0,3.809.72h0c.635,0,.635.72,1.27.72a65.138,65.138,0,0,0,3.174,13.679c0,.72,3.809,5.76,5.079,11.519,1.27,6.48.635,12.959-1.27,16.559-3.809,9.36-3.174,7.2-2.54,22.319v1.44a71.54,71.54,0,0,0,5.714,24.479l-.635.72c-11.428,18.719-35.554,25.919-43.173,27.359a15.929,15.929,0,0,1-3.174.72l-4.444-2.16-.635-.72s7.619-41.038,5.079-49.678C67.489,96.194,63.044,88.274,60.5,81.074Z" transform="translate(157.9 8.95)"/></g><path class="r" d="M68.233,121.055l.635.72,5.079,1.44a5.708,5.708,0,0,0,2.54-.72,60.493,60.493,0,0,1-1.27-12.959c0-6.48,2.54-30.239,3.809-43.2.635-7.2,1.27-10.08.635-14.4-.635-3.6-2.54-12.959-5.714-13.679-1.9-.72-5.714,4.32-8.889,11.519,2.54,7.2,6.984,15.119,8.889,20.879C75.852,79.3,68.233,121.055,68.233,121.055Z" transform="translate(283.794 126.677)"/><g class="au" transform="matrix(1, 0, 0, 1, 129.81, 87.15)"><path class="c" d="M52.406,112.4c5.714,4.32,53.966,30.958,54.6,36,.635,2.16-1.9,9.36-3.809,25.919-1.27,15.119.635,36.718,5.714,61.917l3.174-1.44,6.349-3.6s9.523-65.517,10.158-80.636-4.444-20.879-10.158-25.919c-1.9-2.16-17.142-18.719-20.951-23.039l-.635-.72s10.793-6.48,15.237-9.36c12.7-6.48,30.475-17.279,33.014-15.839,1.27.72-3.175,6.48-3.175,15.839,0,19.439,2.54,49.678,2.54,49.678l3.809-2.88,9.523-4.32s12.063-73.436,8.889-84.956-20.951-5.04-29.205,0C134.308,51.2,102.563,65.6,102.563,65.6a15.255,15.255,0,0,1-3.174,1.44c-12.7,20.159-40,26.639-45.077,28.079h-.635l-4.444-2.16-.635-.72C47.962,93.676,46.692,108.075,52.406,112.4Z" transform="translate(174.89 66.91)"/></g><g transform="translate(398.273 152.696)"><path class="s" d="M91.354,91.937c0-.72,2.54,1.44,2.54,0,.635-.72-3.809-4.32-3.809-4.32h0S68.5,75.378,64.689,70.338c-3.174-3.6-3.174-20.879-5.714-33.838.635,5.76.635,12.239-2.54,19.439l-1.9,4.32c-1.9,5.04-1.27,5.76-1.27,18V79.7c2.54,3.6,5.079,6.48,7.619,7.92,6.349,4.32,19.682,5.76,19.682,5.76a19.418,19.418,0,0,1,2.54,3.6c.635,1.44,1.27,2.16,1.9,1.44,1.27-.72,0-2.88,0-3.6s1.9.72,2.54,2.16c1.27,1.44,2.54,3.6,3.174,3.6s-1.9-5.04-1.9-5.76,3.174,7.2,4.444,5.76-2.54-5.76-2.54-7.2c-.635-.72,2.54,3.6,3.174,2.88C95.164,96.257,91.354,92.657,91.354,91.937Z" transform="translate(-53.159 -36.5)"/><path class="t" d="M55.2,57.8v1.44c2.54,3.6,5.079,6.48,7.619,7.92,6.349,4.32,19.682,5.76,19.682,5.76l1.27-.72C65.36,67.879,59.011,56.359,57.741,53.479c-.635-1.44-1.27-8.64-1.27-13.679C54.567,44.84,55.2,46.28,55.2,57.8Z" transform="translate(-55.1 -16.041)"/></g><g transform="translate(382.502 201.654)"><g transform="translate(0.635 22.319)"><path class="u" d="M79.117,60.079v3.6L58.8,50V46.4Z" transform="translate(-58.8 -46.4)"/></g><path class="v" d="M86.04,58.979a3.474,3.474,0,0,1,2.54-.72,7.66,7.66,0,0,1,4.444,0L73.342,45.3s-6.349,0-10.158,2.16A18.462,18.462,0,0,0,56.2,53.94L76.517,66.9S80.961,61.139,86.04,58.979Z" transform="translate(-55.565 -30.901)"/><path class="w" d="M73.442,48.815v-1.44a7.659,7.659,0,0,0-4.444,0c-.635,0-1.27.72-2.54.72-5.079,2.16-10.158,7.92-10.158,7.92v3.6Z" transform="translate(-36.618 -20.017)"/><path class="x" d="M56.3,52.085a46.927,46.927,0,0,1,7.619-5.76c3.809-2.16,8.254-.72,8.254-.72L91.854,58.564S89.314,57.124,83.6,60a24.111,24.111,0,0,0-6.984,5.04Z" transform="translate(-55.03 -31.926)"/><path class="y" d="M72.947,70.039s3.809-7.2,8.254-10.8,6.984-2.88,6.984-2.88L67.868,43.4a19.7,19.7,0,0,0-6.984,5.04A105.268,105.268,0,0,0,53.9,57.8Z" transform="translate(-36.123 -42.68)"/><path class="z" d="M75.982,61.977,56.3,49.017s6.349-6.48,12.7-2.88L88.68,59.1C88.68,59.817,82.966,56.937,75.982,61.977Z" transform="translate(-51.856 -32.458)"/><path class="aa" d="M69.037,46.02l-1.27-.72c-2.54,0-3.809,1.44-6.984,4.32-3.809,2.88-6.984,8.64-6.984,8.64s6.349-7.92,10.158-10.08C67.133,45.3,69.037,46.02,69.037,46.02Z" transform="translate(-16.341 -30.901)"/><path class="ab" d="M69.672,48.479V45.6s-1.9-.72-5.714,1.44S53.8,57.119,53.8,57.119v1.44Z" transform="translate(-16.976 -29.76)"/><path class="ac" d="M60.984,50.265c3.174-2.88,5.079-4.32,6.984-4.32H68.6l-.635-.72c.635,0-1.9-.72-6.984,5.04-3.174,2.16-4.444,4.32-5.714,5.76A4.762,4.762,0,0,0,54,58.9S57.809,53.144,60.984,50.265Z" transform="translate(-17.176 -31.545)"/><path class="w" d="M75.152,67.779A27.668,27.668,0,0,1,86.58,56.259L66.263,43.3S54.835,51.22,54.2,58.419L73.247,70.659A12.517,12.517,0,0,1,75.152,67.779Z" transform="translate(-36.423 -43.3)"/><path class="w" d="M57.27,46.7C56,48.86,56,49.58,56,49.58A4.762,4.762,0,0,1,57.27,46.7Z" transform="translate(-18.541 -22.221)"/><g transform="translate(20.317 17.999)"><path class="ad" d="M54.335,67.4H53.7L86.714,45.8v.72Z" transform="translate(-53.7 -45.8)"/><g transform="translate(0 21.599)"><path class="ae" d="M59.435,48.8v.72H58.8V48.8Z" transform="translate(-58.8 -48.8)"/></g><g transform="translate(0.635 0.72)"><path class="af" d="M86.08,45.9h0L53.7,67.5v-.72Z" transform="translate(-53.7 -45.9)"/></g></g><path class="ad" d="M79.117,60.579h0L58.8,46.9h.635L79.751,60.579Z" transform="translate(-58.8 -20.981)"/><path class="ae" d="M79.217,60.579,58.9,46.9v.72c.635.72,1.9,1.44,2.54,2.16,6.349,3.6,12.063,7.2,17.777,10.8Z" transform="translate(-58.9 -20.981)"/><path class="ad" d="M54.335,45.8H53.7v.72Z" transform="translate(-1.004 -27.801)"/><path class="ab" d="M58.54,47.1v.72L56,49.26h0Z" transform="translate(-19.811 -19.741)"/><path class="ad" d="M58.54,47.2h0L56,49.36v-.72Z" transform="translate(-19.811 -19.121)"/><path class="af" d="M58.54,47.2v.72L56,49.36h0Z" transform="translate(-19.811 -19.121)"/><g transform="translate(20.689 1.44)"><g transform="translate(15.5 10.799)"><path class="ag" d="M55.97,55.08a16.467,16.467,0,0,1,5.079-6.48A13.047,13.047,0,0,1,65.493,45h0C64.858,45,56.6,50.04,54.7,57.959h0A5.773,5.773,0,0,1,55.97,55.08Z" transform="translate(-54.7 -45)"/></g><g transform="translate(14.866 10.079)"><path class="ag" d="M55.435,54.98a16.467,16.467,0,0,1,5.079-6.48c2.54-2.16,4.444-3.6,5.079-3.6h0c-.635,0-8.889,5.04-10.793,12.959h0C54.8,57.139,55.435,55.7,55.435,54.98Z" transform="translate(-54.8 -44.9)"/></g><g transform="translate(13.596 9.36)"><path class="ag" d="M56.27,54.88a16.467,16.467,0,0,1,5.079-6.48c2.54-2.16,4.444-3.6,4.444-3.6h0C65.158,44.8,56.9,49.84,55,57.759h0C55,57.039,55.635,56.319,56.27,54.88Z" transform="translate(-55 -44.8)"/></g><g transform="translate(12.961 8.64)"><path class="ag" d="M55.735,54.78a16.467,16.467,0,0,1,5.079-6.48c2.54-2.16,4.444-3.6,5.079-3.6h0C65.258,44.7,57,49.74,55.1,57.659h0C55.1,56.939,55.735,56.219,55.735,54.78Z" transform="translate(-55.1 -44.7)"/></g><g transform="translate(12.326 7.92)"><path class="ag" d="M55.835,54.679a16.467,16.467,0,0,1,5.079-6.48c2.54-2.16,4.444-3.6,5.079-3.6h0c-.635,0-8.888,5.04-10.793,12.959h0A6.045,6.045,0,0,1,55.835,54.679Z" transform="translate(-55.2 -44.6)"/></g><g transform="translate(11.428 7.92)"><path class="ag" d="M56.2,54.679a16.467,16.467,0,0,1,5.079-6.48c2.54-2.16,4.444-3.6,5.079-3.6h0c-.635,0-8.888,5.04-10.793,12.959h0A2.32,2.32,0,0,1,56.2,54.679Z" transform="translate(-55.3 -44.6)"/></g><g transform="translate(10.421 7.2)"><path class="ag" d="M56.135,54.58a16.467,16.467,0,0,1,5.079-6.48c2.54-2.16,4.444-3.6,5.079-3.6h0c-.635,0-8.889,5.04-10.793,12.959h0A4.787,4.787,0,0,1,56.135,54.58Z" transform="translate(-55.5 -44.5)"/></g><g transform="translate(9.523 6.48)"><path class="ag" d="M56.5,54.48A16.467,16.467,0,0,1,61.577,48c2.54-2.16,4.444-3.6,5.079-3.6h0c-.635,0-8.889,5.04-10.793,12.959h0C55.228,56.639,55.863,55.2,56.5,54.48Z" transform="translate(-55.6 -44.4)"/></g><g transform="translate(8.517 5.76)"><path class="ag" d="M56.435,54.379a16.467,16.467,0,0,1,5.079-6.48c2.54-2.16,4.444-3.6,5.079-3.6h0c-.635,0-8.889,5.04-10.793,12.959h0A4.787,4.787,0,0,1,56.435,54.379Z" transform="translate(-55.8 -44.3)"/></g><g transform="translate(7.619 5.04)"><path class="ag" d="M56.8,54.28a16.467,16.467,0,0,1,5.079-6.48c2.54-2.16,4.444-3.6,5.079-3.6h0c-.635,0-8.889,5.04-10.793,12.959h0C55.528,56.439,56.163,55,56.8,54.28Z" transform="translate(-55.9 -44.2)"/></g><g transform="translate(6.612 4.32)"><path class="ag" d="M56.735,54.18a16.467,16.467,0,0,1,5.079-6.48c2.54-2.16,4.444-3.6,5.079-3.6h0C66.258,44.1,58,49.14,56.1,57.059h0A6.045,6.045,0,0,1,56.735,54.18Z" transform="translate(-56.1 -44.1)"/></g><g transform="translate(5.714 3.6)"><path class="ag" d="M57.1,54.08a16.467,16.467,0,0,1,5.079-6.48c2.54-2.16,4.444-3.6,5.079-3.6h0c-.635,0-8.889,5.04-10.793,12.959h0C55.828,56.239,56.463,55.519,57.1,54.08Z" transform="translate(-56.2 -44)"/></g><g transform="translate(4.707 2.88)"><path class="ag" d="M57.035,53.979a16.467,16.467,0,0,1,5.079-6.48c2.54-2.16,4.444-3.6,5.079-3.6h0c-.635,0-8.889,5.04-10.793,12.959h0C56.4,56.139,57.035,55.419,57.035,53.979Z" transform="translate(-56.4 -43.9)"/></g><g transform="translate(3.809 2.88)"><path class="ag" d="M57.4,53.979a16.467,16.467,0,0,1,5.079-6.48c2.54-2.16,4.444-3.6,5.079-3.6h0c-.635,0-8.889,5.04-10.793,12.959h0A2.32,2.32,0,0,1,57.4,53.979Z" transform="translate(-56.5 -43.9)"/></g><g transform="translate(2.803 2.16)"><path class="ag" d="M57.335,53.88a16.467,16.467,0,0,1,5.079-6.48c2.54-2.16,4.444-3.6,5.079-3.6h0c-.635,0-8.889,5.04-10.793,12.959h0C56.7,56.039,57.335,54.6,57.335,53.88Z" transform="translate(-56.7 -43.8)"/></g><g transform="translate(1.905 1.44)"><path class="ag" d="M57.7,53.78a16.467,16.467,0,0,1,5.079-6.48c2.54-2.16,4.444-3.6,5.079-3.6h0c-.635,0-8.889,5.04-10.793,12.959h0C56.428,55.939,57.063,54.5,57.7,53.78Z" transform="translate(-56.8 -43.7)"/></g><g transform="translate(0.898 0.72)"><path class="ag" d="M57.635,53.68a16.467,16.467,0,0,1,5.079-6.48c2.54-2.16,4.444-3.6,5.079-3.6h0C67.158,43.6,58.9,48.64,57,56.559h0C57,55.839,57.635,54.4,57.635,53.68Z" transform="translate(-57 -43.6)"/></g><g transform="translate(0)"><path class="ag" d="M58,53.58a16.467,16.467,0,0,1,5.079-6.48c2.54-2.16,4.444-3.6,5.079-3.6h0c-.635,0-8.889,5.04-10.793,12.959h0C56.728,55.739,57.363,54.3,58,53.58Z" transform="translate(-57.1 -43.5)"/></g></g><g transform="translate(8.254 14.399)"><g transform="translate(15.237 10.799)"><path class="ag" d="M56.8,49.68h0a11.274,11.274,0,0,1,7.619-2.88h-.635A12.387,12.387,0,0,0,56.8,49.68Z" transform="translate(-56.8 -46.8)"/></g><g transform="translate(14.603 9.36)"><path class="ag" d="M57,50.2h0a8.406,8.406,0,0,1,6.984-3.6h-.635c-1.27.72-4.444,1.44-6.349,3.6Z" transform="translate(-57 -46.6)"/></g><g transform="translate(13.333 8.64)"><path class="ag" d="M57.2,50.1h0c2.54-2.88,5.079-3.6,6.984-3.6h-.635c-1.27.72-4.444,1.44-6.349,3.6Z" transform="translate(-57.2 -46.5)"/></g><g transform="translate(12.063 7.92)"><path class="ag" d="M57.4,50h0a8.406,8.406,0,0,1,6.984-3.6h-.635A8.212,8.212,0,0,0,57.4,50Z" transform="translate(-57.4 -46.4)"/></g><g transform="translate(10.793 7.2)"><path class="ag" d="M57.6,49.9h0a8.406,8.406,0,0,1,6.984-3.6h-.635c-1.27,0-3.809.72-6.349,3.6Z" transform="translate(-57.6 -46.3)"/></g><g transform="translate(9.523 6.48)"><path class="ag" d="M57.8,49.8h0a8.406,8.406,0,0,1,6.984-3.6h-.635c-1.27,0-3.809.72-6.349,3.6Z" transform="translate(-57.8 -46.2)"/></g><g transform="translate(8.254 5.76)"><path class="ag" d="M58,49.7h0a8.406,8.406,0,0,1,6.984-3.6h-.635c-1.27,0-3.809.72-6.349,3.6Z" transform="translate(-58 -46.1)"/></g><g transform="translate(6.984 4.32)"><path class="ag" d="M58.2,49.5h0a8.406,8.406,0,0,1,6.984-3.6h-.635c-1.27.72-3.809,1.44-6.349,3.6Z" transform="translate(-58.2 -45.9)"/></g><g transform="translate(5.714 3.6)"><path class="ag" d="M58.4,49.4h0a8.406,8.406,0,0,1,6.984-3.6h-.635c-1.27.72-3.809,1.44-6.349,3.6Z" transform="translate(-58.4 -45.8)"/></g><g transform="translate(4.444 2.88)"><path class="ag" d="M58.6,49.3h0a8.406,8.406,0,0,1,6.984-3.6h-.635c-1.27.72-3.809,1.44-6.349,3.6Z" transform="translate(-58.6 -45.7)"/></g><g transform="translate(3.174 2.16)"><path class="ag" d="M58.8,49.2h0a8.406,8.406,0,0,1,6.984-3.6h-.635c-1.27.72-3.809,1.44-6.349,3.6Z" transform="translate(-58.8 -45.6)"/></g><g transform="translate(1.905 1.44)"><path class="ag" d="M59,49.1h0a8.406,8.406,0,0,1,6.984-3.6h-.635c-1.27,0-3.809.72-6.349,3.6Z" transform="translate(-59 -45.5)"/></g><g transform="translate(0.635 0.72)"><path class="ag" d="M59.2,49h0c2.54-2.88,5.079-3.6,6.984-3.6h-.635c-1.27,0-3.809.72-6.349,3.6Z" transform="translate(-59.2 -45.4)"/></g><g transform="translate(0)"><path class="ag" d="M59.3,48.9h0a8.406,8.406,0,0,1,6.984-3.6h0A8.406,8.406,0,0,0,59.3,48.9Z" transform="translate(-59.3 -45.3)"/></g></g></g><path class="ah" d="M65.123,68.7s-.635,5.04-3.809,7.92C58.14,78.78,55.6,75.18,55.6,75.18Z" transform="translate(358.646 315.825)"/><path class="ai" d="M61.659,55.4s.635,6.48-4.444,7.2A6.906,6.906,0,0,1,49.6,60.44Z" transform="translate(400.205 233.37)"/><path class="aj" d="M112.461,120.036a7.39,7.39,0,0,1-3.174,2.88c-.635,0-1.27.72-1.9.72a8.258,8.258,0,0,1-8.254-1.44s-8.889,1.44-21.586-5.04c-.635,0-1.27-.72-1.9-.72a26.7,26.7,0,0,1-14.6-23.759c-.635-2.88-1.27-20.159.635-34.558h0a34.888,34.888,0,0,1,.635-3.6c1.27-7.2,3.174-13.679,6.349-16.559,7.619-6.48,10.793,7.92,10.793,25.919V68.2c-.635,15.839-3.174,24.479-3.174,24.479s10.158,18,29.84,21.6c1.9-1.44,5.714-2.88,5.714-2.16s-.635,1.44-1.9,2.88h0l-2.54,1.44h0Z" transform="translate(280.834 115.456)"/><path class="ak" d="M50.993,75.021c0,.72,1.9,1.44,3.174,2.16l-.635-.72s10.793-6.48,15.237-9.36c12.7-6.48,30.475-17.279,33.014-15.839,1.27.72-3.174,6.48-3.174,15.839,0,19.439,2.54,49.678,2.54,49.678l3.174-1.44a185.958,185.958,0,0,1-1.9-25.919c0-12.959.635-33.118,1.9-39.6,1.27-7.2-10.158-1.44-15.237.72S50.359,74.3,50.993,75.021Z" transform="translate(348.65 177.031)"/><path class="ak" d="M61.264,69.039c5.714,4.32,53.966,30.958,54.6,36,.635,2.16-1.9,9.36-3.809,25.919-1.27,15.119.635,36.718,5.714,61.917l3.174-1.44a19.738,19.738,0,0,0-.635-5.04s-4.444-38.158-3.809-55.437,3.809-28.079,3.809-30.239c-.635-2.16-6.349-5.76-6.349-5.76-45.077-28.8-45.077-28.8-50.157-33.118-1.9-2.16-1.9-6.48-1.27-9.36H61.9l-4.444-2.16-.635-.72C56.82,50.32,55.55,64.719,61.264,69.039Z" transform="translate(295.842 197.412)"/><path class="al" d="M109.787,107.3c-.635,0-1.27.72-1.9.72a8.258,8.258,0,0,1-8.254-1.44s-8.888,1.44-21.586-5.04c-.635,0-1.27-.72-1.9-.72a26.7,26.7,0,0,1-14.6-23.759c-.635-2.88-1.27-20.159.635-34.558h0a34.89,34.89,0,0,1,.635-3.6l2.54,2.88s-2.54,23.759-1.27,30.238,1.27,16.559,5.714,20.159C83.756,103.7,100.263,107.3,109.787,107.3Z" transform="translate(280.334 131.076)"/><g transform="translate(342.503 151.976)"><path class="b" d="M65.6,57.379h0a13.683,13.683,0,0,0,3.174,2.16c6.349,3.6,14.6,7.92,14.6,7.92v-3.6c0-15.119-1.9-27.359-7.619-27.359-1.27,0-1.9.72-3.174,1.44C68.774,40.82,66.87,48.739,65.6,57.379Z" transform="translate(-65.6 -35.78)"/><path class="am" d="M66.8,58h0a13.684,13.684,0,0,0,3.174,2.16,42.57,42.57,0,0,1,1.27-12.239c1.9-5.76,5.079-8.64,5.714-11.519-1.27,0-1.9.72-3.174,1.44C69.974,41.44,68.07,49.359,66.8,58Z" transform="translate(-66.8 -36.4)"/></g><g transform="translate(359.498 87.15)"><path class="an" d="M60.584,39.96c1.27-6.48,4.444-1.44,4.444-1.44s8.254,2.16,13.333-.72c6.349-2.88,8.254-5.76,8.889-7.2v5.76c-.635,10.8-1.9,20.879-8.254,25.2a2.162,2.162,0,0,1-1.9.72c-3.809.72-9.523-1.44-13.333-6.48-.635-1.44-1.9-2.88-1.9-4.32l1.27-5.04S59.949,43.559,60.584,39.96Z" transform="translate(-54.087 -7.532)"/><g transform="translate(0)"><g transform="translate(1.173)"><path class="ao" d="M65.438,41.824a5.681,5.681,0,0,0,5.714-.72,14.684,14.684,0,0,0,6.349-6.48,5.425,5.425,0,0,0-1.9-5.04c-1.9-2.16-4.444-2.88-8.254-1.44-.635,0-1.27.72-1.9.72C62.264,32.465,62.9,39.665,65.438,41.824Z" transform="translate(-63.289 -27.396)"/><path class="ap" d="M66.449,41.179a5.681,5.681,0,0,0,5.714-.72c-1.9-1.44-5.079-4.32-5.079-7.92a11.455,11.455,0,0,1,1.27-5.04c-.635,0-1.27.72-1.9.72C63.275,31.82,63.91,39.019,66.449,41.179Z" transform="translate(-64.3 -26.751)"/></g><g transform="translate(7.518 47.547)"><path class="aq" d="M63.544,48.5c3.809,4.32,12.7,2.16,13.968-2.16a5.136,5.136,0,0,0,0-4.32V40.58c-3.809.72-9.523-1.44-13.333-6.48-.635,2.16-1.9,5.04-1.9,7.92C61.639,44.9,62.274,47.059,63.544,48.5Z" transform="translate(-62.025 -33.38)"/><path class="ar" d="M62.1,42.64c1.9.72,5.079,2.16,7.619,2.16,3.174,0,6.349-1.44,7.619-2.88V40.48C73.528,41.2,67.814,39.04,64,34,63.37,36.16,62.735,39.76,62.1,42.64Z" transform="translate(-61.851 -34)"/></g><g transform="translate(0 4.332)"><path class="ao" d="M62.018,59.693c.635,4.32,5.714,7.92,5.714,7.92L69,62.573a11.006,11.006,0,0,1-2.54-6.48c0-1.44.635-2.16.635-2.88,1.27-2.88,3.174.72,3.174.72s8.254,2.16,13.333-.72c6.349-2.88,8.254-5.76,8.889-7.2v-.72s2.54-5.76-2.54-12.239-17.777-6.48-24.761-1.44a5.336,5.336,0,0,0-2.54,2.88C58.843,43.134,61.383,55.373,62.018,59.693Z" transform="translate(-60.6 -27.998)"/><path class="as" d="M65.818,53.479c.635,4.32,5.714,7.92,5.714,7.92l1.27-5.04a11.006,11.006,0,0,1-2.54-6.48c0-1.44.635-2.16.635-2.88a22.684,22.684,0,0,1-5.079-6.48c-1.27-2.16,0-7.92.635-11.519C62.643,36.92,65.183,49.159,65.818,53.479Z" transform="translate(-64.4 -21.783)"/></g></g></g><path class="at" d="M64.914,50.059s1.9-2.16,1.9-3.6c0,0-3.174-9.36-7.619-12.959,0,0,.635,3.6,2.54,10.08S64.914,50.059,64.914,50.059Z" transform="translate(334.095 97.597)"/></g></svg>