<svg xmlns="http://www.w3.org/2000/svg" xmlns:xlink="http://www.w3.org/1999/xlink" width="400.645" height="516.234" viewBox="0 0 400.645 516.234"><defs><style>.a{fill:#3a87f2;}.b{fill:#347ada;}.c{fill:#eee;}.d{fill:#777c99;}.e{fill:#1a2a49;}.f{fill:#111b34;}.g{fill:#13133d;}.h{fill:url(#c);}.i{fill:url(#d);}.j{fill:#08637f;opacity:0.2;}.k{fill:url(#e);}.l,.m{fill:#575a89;}.ad,.ae,.m,.p{opacity:0.4;}.n{fill:#dadae8;}.o{fill:url(#h);}.p{fill:#84849b;}.q{fill:#61617a;opacity:0.1;}.r{fill:url(#i);}.s{fill:url(#j);}.t{fill:url(#k);}.u{fill:url(#l);}.v{fill:url(#m);}.aa,.w,.y{opacity:0.28;}.w{fill:url(#n);}.x{fill:url(#o);}.y{fill:url(#p);}.z{fill:url(#q);}.aa{fill:url(#r);}.ab,.ac{fill:#2b1520;}.ac{opacity:0.3;}.ad{fill:url(#s);}.ae{fill:url(#t);}.af{fill:#40424c;}.ag{filter:url(#f);}.ah{filter:url(#a);}</style><filter id="a" x="284.585" y="192.425" width="116.059" height="241.356" filterUnits="userSpaceOnUse"><feOffset dx="12" dy="2" input="SourceAlpha"/><feGaussianBlur stdDeviation="3" result="b"/><feFlood flood-opacity="0.161"/><feComposite operator="in" in2="b"/><feComposite in="SourceGraphic"/></filter><linearGradient id="c" x1="-479.45" y1="15.684" x2="-469.085" y2="-7.483" gradientUnits="objectBoundingBox"><stop offset="0.01" stop-color="#dea595"/><stop offset="0.99" stop-color="#e2837a"/></linearGradient><linearGradient id="d" x1="-676.045" y1="17.089" x2="-713.303" y2="-1.29" gradientUnits="objectBoundingBox"><stop offset="0.01" stop-color="#55cbe6"/><stop offset="0.99" stop-color="#78cbe6"/></linearGradient><linearGradient id="e" x1="406.585" y1="0.333" x2="403.665" y2="0.742" xlink:href="#c"/><filter id="f" x="17.355" y="376.249" width="217.428" height="139.985" filterUnits="userSpaceOnUse"><feOffset dx="10" dy="10" input="SourceAlpha"/><feGaussianBlur stdDeviation="3" result="g"/><feFlood flood-opacity="0.161"/><feComposite operator="in" in2="g"/><feComposite in="SourceGraphic"/></filter><linearGradient id="h" x1="42" y1="-19.564" x2="42.757" y2="-19.564" gradientUnits="objectBoundingBox"><stop offset="0" stop-color="#dadae8"/><stop offset="0.535" stop-color="#bdbdd1"/><stop offset="1" stop-color="#84849b"/></linearGradient><linearGradient id="i" x1="169.781" y1="0.034" x2="168.558" y2="1.012" xlink:href="#c"/><linearGradient id="j" x1="159.665" y1="-0.039" x2="158.459" y2="1.134" xlink:href="#c"/><linearGradient id="k" x1="230.647" y1="-0.013" x2="229.331" y2="1.086" xlink:href="#c"/><linearGradient id="l" x1="303.843" y1="0.05" x2="302.638" y2="1.15" xlink:href="#c"/><linearGradient id="m" x1="30.507" y1="-0.08" x2="29.532" y2="1.017" xlink:href="#c"/><linearGradient id="n" x1="52.484" y1="0.444" x2="53.48" y2="0.444" xlink:href="#c"/><linearGradient id="o" x1="22.143" y1="0.081" x2="23.746" y2="0.081" xlink:href="#c"/><linearGradient id="p" x1="56.892" y1="0.071" x2="57.828" y2="0.071" xlink:href="#c"/><linearGradient id="q" x1="44.941" y1="0.865" x2="44.349" y2="-0.969" xlink:href="#c"/><linearGradient id="r" x1="48.281" y1="-1.15" x2="49.307" y2="-1.15" xlink:href="#c"/><linearGradient id="s" x1="5.999" y1="0.499" x2="6.999" y2="0.499" gradientUnits="objectBoundingBox"><stop offset="0" stop-color="#34239b"/><stop offset="0.99" stop-color="#3d2386"/></linearGradient><linearGradient id="t" x1="5.629" y1="0.487" x2="6.638" y2="0.487" xlink:href="#s"/></defs><g transform="translate(0.011)"><g transform="translate(174.891)"><g transform="translate(0 89.741)"><path class="a" d="M27.63,13.5,26.3,320.615l33.9,19.278,1.33-307.115Z" transform="translate(-26.3 -13.5)"/></g><g transform="translate(33.902 19.278)"><path class="b" d="M31.4,399.757l157.546-91.071V2.9L32.73,92.641Z" transform="translate(-31.4 -2.9)"/></g><g transform="translate(1.33)"><path class="a" d="M60.4,109.019,216.619,19.278l-3.988-2.659-3.324,2.659L182.052,3.989V0L26.5,89.741Z" transform="translate(-26.5)"/><path class="c" d="M27.8,86.353l26.59,15.289L201.965,15.889,174.71.6Z" transform="translate(-19.158 3.389)"/></g></g><g transform="translate(220.758 146.245)"><g transform="translate(8.642 2.659)"><path class="d" d="M34.5,90.2l.665,200.09,117-67.8L151.5,22.4Z" transform="translate(-34.5 -22.4)"/></g><g transform="translate(0 70.464)"><path class="e" d="M33.2,32.6l.665,200.755L83.721,262.6,83.056,61.849Z" transform="translate(-33.2 -32.6)"/></g><g transform="translate(11.301 6.648)"><path class="c" d="M149.237,23,34.9,88.81l40.55,23.266,114.337-65.81c-.665,0-9.307-1.33-23.266-9.971C151.9,28.318,149.237,23,149.237,23Z" transform="translate(-34.9 -23)"/></g><path class="f" d="M205.371,51.249l-3.989-2.659-117.661,67.8L41.842,92.464l117-67.8L155.514,22,33.2,92.464l49.856,29.249Z" transform="translate(-33.2 -22)"/><g transform="translate(49.856 29.249)"><path class="f" d="M40.7,96.864l.665,200.755,122.314-70.464L163.014,26.4Z" transform="translate(-40.7 -26.4)"/><path class="e" d="M42.265,278.511,152.613,215.36,151.949,27.9,41.6,91.716Z" transform="translate(-35.617 -17.929)"/><g class="ah" transform="matrix(1, 0, 0, 1, -270.63, -175.49)"><path class="f" d="M43.465,253.356l94.395-54.51L137.195,30,42.8,84.51Z" transform="translate(241.79 169.43)"/></g></g></g><path class="g" d="M76.595,63.085c-.665,3.324-15.289,9.971-16.619,11.3-1.33.665-11.3,2.659-12.63-.665-1.33-3.988,5.318-9.971,11.3-13.96,5.983-3.324,10.636-5.318,12.63-4.653C72.606,55.773,78.589,56.438,76.595,63.085Z" transform="translate(266.478 310.505)"/><path class="h" d="M60.894,35.1A32.41,32.41,0,0,0,58.9,39.753c1.33-1.994,1.33-3.324,1.994-4.653Z" transform="translate(332.699 198.228)"/><path class="i" d="M58.8,41.683c.665-1.994.665-3.989,1.329-5.983A19.41,19.41,0,0,0,58.8,41.683Z" transform="translate(332.135 201.616)"/><path class="j" d="M42.8,32.6c0,.665-11.3,10.636-11.3,10.636V232.025l11.966-6.648Z" transform="translate(177.958 184.109)"/><g transform="translate(-0.011 264.87)"><path class="k" d="M19.394,49s-1.33.665-1.994,3.988a27.429,27.429,0,0,0,.665,5.983l1.33-.665Z" transform="translate(98.338 11.859)"/><g transform="translate(116.684 32.939)"><path class="l" d="M23.909,95.321c7.977,6.648,13.3,9.971,17.284,11.966.665,0,.665.665,1.33.665,11.3,3.324,22.6-18.613,22.6-18.613V58.76c0-10.636,3.324-13.96,3.324-13.96-5.983,2.659-12.63,19.278-18.613,31.908a58.928,58.928,0,0,0-5.318,11.3C37.2,84.685,26.568,77.373,26.568,77.373l-8.642,5.983h0C17.261,83.356,16.6,89.338,23.909,95.321Z" transform="translate(-17.542 -44.8)"/><path class="m" d="M23.909,69.907c7.977,6.648,13.3,9.971,17.284,11.966.665,0,.665.665,1.33.665,11.3,3.324,22.6-18.613,22.6-18.613V49.3C61.8,60.6,53.823,75.225,49.169,77.22c-4.653,2.659-15.954-3.324-21.937-8.642-4.653-3.324-7.977-8.642-9.307-10.636h0C17.261,57.942,16.6,63.925,23.909,69.907Z" transform="translate(-17.542 -19.386)"/></g><path class="l" d="M24.6,122.154s9.307,19.278,45.2,25.261c1.33,0,3.324.665,4.653.665,0,0,3.324,0,3.988-2.659v-.665c0-3.324-1.994-20.607,0-37.226a19.666,19.666,0,0,1,1.33-6.647c2.659-13.3,7.312-22.6,4.653-25.925C79.774,68.309,35.9,41.719,29.253,45.043c-5.318,2.659-3.989,18.613-3.324,35.9C25.265,98.223,24.6,122.154,24.6,122.154Z" transform="translate(139.001 -12.104)"/><g class="ag" transform="matrix(1, 0, 0, 1, 0, -264.87)"><path class="b" d="M2.6,122.41l9.307,5.983,3.324,2.659s14.625-3.988,32.573-7.312,22.6-12.63,45.868-18.613c23.931-5.983,52.515-17.948,56.5-17.948,4.653,0,7.312,1.33,10.636,3.324,0,.665-13.3,16.619-38.556,37.891-17.948,14.625-46.533,41.215-46.533,41.215l3.989,4.653,3.324,3.324s36.561-17.948,51.186-29.914c19.943-16.619,47.2-35.232,57.833-45.2,9.971-8.642,9.307-17.948,8.642-22.6-.665,2.659-3.989,2.659-3.989,2.659-1.994,0-3.324-.665-4.653-.665C156.822,75.878,147.516,56.6,147.516,56.6S89.018,83.19,57.11,97.815C27.2,111.11,2.6,122.41,2.6,122.41Z" transform="translate(14.76 319.65)"/></g><g transform="translate(117.068 44.905)"><g transform="translate(0 0.369)"><path class="n" d="M17.6,46.951V76.865a.651.651,0,0,0,.665.665l19.278,11.3L53.5,97.472h.665V67.558a.651.651,0,0,0-.665-.665L28.9,52.934,17.6,46.951Z" transform="translate(-17.6 -46.656)"/></g><path class="o" d="M54.261,66.543h0L40.3,58.566,19.03,46.6h0c-.665,0-.665.665-1.33.665h0L38.972,59.23l13.96,7.977h0V97.121h0c.665,0,.665-.665,1.33-.665h0V66.543Z" transform="translate(-17.035 -46.6)"/><g transform="translate(1.329 15.954)"><path class="p" d="M19.13,51.659c.665,0,1.33,0,1.33-.665s-.665-1.33-1.33-1.994c-.665,0-1.33,0-1.33.665S18.465,51.659,19.13,51.659Z" transform="translate(-17.8 -49)"/></g><path class="q" d="M17.6,46.951V76.865a.651.651,0,0,0,.665.665l19.278,11.3L28.9,52.934,17.6,46.951Z" transform="translate(-17.6 -46.286)"/></g><path class="r" d="M22.341,52.988c-.665.665-2.659-.665-3.989-1.994S17.687,49,18.352,49C19.017,49.665,22.341,52.324,22.341,52.988Z" transform="translate(99.381 11.859)"/><path class="s" d="M22.536,52.837c-.665.665-3.324-.665-3.989-1.33-1.33-.665-1.33-2.659,0-1.994C19.212,49.514,23.2,52.173,22.536,52.837Z" transform="translate(99.186 14.004)"/><path class="t" d="M20.924,52.693c-.665,0-3.324-.665-3.324-1.994,0-.665,0-1.33,1.33-.665C20.259,51.363,21.589,52.693,20.924,52.693Z" transform="translate(99.468 16.143)"/><path class="u" d="M20.159,51.809c0,.665-1.994,0-2.659-1.33C17.5,49.15,20.159,51.145,20.159,51.809Z" transform="translate(98.903 17.691)"/><g transform="translate(145.652 82.131)"><path class="v" d="M27.883,57.518s-5.318,0-5.318.665,4.653,1.994,4.653,1.994-3.324,0-3.324.665l.665.665a30.118,30.118,0,0,0,5.318.665c.665,2.659,4.653,5.318,4.653,5.318l2.659-1.33L46.5,62.836s-6.648-3.988-9.307-5.318c-.665-.665-1.33-.665-2.659-1.33h0c0-.665-1.994-3.988-3.989-3.988v1.33a6.7,6.7,0,0,1,.665,1.994,5.145,5.145,0,0,0-1.994-.665s-6.648-.665-6.648,0,4.653,1.994,5.318,1.994c-.665,0-5.983-.665-5.983,0C21.9,56.189,27.883,57.518,27.883,57.518Z" transform="translate(-21.9 -52.2)"/><path class="w" d="M23.43,54.065a30.117,30.117,0,0,0,5.318.665c.665,2.659,4.653,5.318,4.653,5.318l2.659-1.33c-4.653-1.994-5.983-3.324-7.312-4.653-1.33-.665-4.653-.665-6.648-.665Z" transform="translate(-20.771 -45.423)"/></g><g transform="translate(172.038)"><g transform="translate(2.863 12.736)"><path class="x" d="M26.3,45.345c0,12.63,5.318,20.607,9.307,23.931L39.6,71.271h4.653a14.53,14.53,0,0,0,3.324-1.994c1.994-1.33,3.324-3.989,3.989-5.983V60.635a9.176,9.176,0,0,0,1.994-2.659c1.33-1.994,2.659-4.653,1.33-6.648A2.321,2.321,0,0,0,54.22,50a3.132,3.132,0,0,0-3.989.665c-.665-2.659-1.33-5.318-3.324-7.312h0c-1.33-1.33-2.659-1.994-3.989-1.33-3.324.665-10.636,4.653-16.619,1.994Z" transform="translate(-26.3 -41.761)"/><path class="y" d="M29,69.82a14.531,14.531,0,0,0,3.324-1.994c1.994-1.33,3.324-3.988,3.989-5.983V59.184a9.176,9.176,0,0,0,1.994-2.659c1.33-1.994,2.659-4.653,1.33-6.648a2.321,2.321,0,0,0-.665-1.33,3.132,3.132,0,0,0-3.989.665c-.665-2.659-1.33-5.318-3.324-7.312,1.994,5.318,4.653,10.636,2.659,17.948C33.653,65.166,30.994,68.49,29,69.82Z" transform="translate(-11.052 -40.974)"/></g><g transform="translate(10.84 39.587)"><path class="z" d="M27.5,51.118s1.33,9.307,3.324,10.636,10.636-7.312,11.3-8.642h0c.665-.665-.665-4.653-1.33-7.312q-2.991,2.991-7.977,1.994A5.746,5.746,0,0,1,28.83,45.8l-.665,1.33Z" transform="translate(-27.5 -45.8)"/><path class="aa" d="M27.7,47.794c2.659,2.659,7.977,5.983,13.3,5.318h0c.665-.665-.665-4.653-1.33-7.312q-2.991,2.991-7.977,1.994A5.746,5.746,0,0,1,27.7,45.8Z" transform="translate(-26.371 -45.8)"/></g><path class="ab" d="M26.738,52.841c0,.665.665.665,1.33,1.33.665,0,.665.665,1.33.665,5.983,2.659,13.3-1.33,16.619-1.994C50,52.177,52,56.165,53.328,61.483c1.33-1.33,2.659-1.994,3.989-.665a2.321,2.321,0,0,1,.665,1.33c.665,1.994-.665,4.653-1.33,6.647-.665.665-1.33,1.994-1.994,2.659v2.659c7.312-7.312,7.977-20.607,0-29.249a11.671,11.671,0,0,0-3.324-2.659c-7.312-4.653-15.954-1.33-19.943.665C28.068,43.535,24.079,49.518,26.738,52.841Z" transform="translate(-25.869 -39.845)"/><path class="ac" d="M26,50.836c0,.665.665.665,1.33,1.33.665,0,.665.665,1.33.665,5.983,2.659,13.3-1.33,16.619-1.994,3.989-.665,5.983,3.324,7.312,8.642,1.33-1.33,2.659-1.994,3.989-.665a2.321,2.321,0,0,1,.665,1.33c.665,1.994-.665,4.653-1.33,6.648-.665.665-1.33,1.994-1.994,2.659v2.659c7.312-7.312,7.977-20.607,0-29.249A11.671,11.671,0,0,0,50.6,40.2c.665,5.983-1.994,7.977-9.971,11.3C34.642,52.83,29.324,51.5,26,50.836Z" transform="translate(-25.131 -37.84)"/></g><path class="m" d="M31.3,108.769c1.33,0,3.324.665,4.653.665,0,0,3.324,0,3.989-2.659v-.665c0-3.324-1.994-20.607,0-37.226a19.666,19.666,0,0,1,1.33-6.648C39.942,55.588,39.277,51.6,39.277,51.6s-5.318,21.272-5.983,35.9C32.63,99.462,31.965,102.786,31.3,108.769Z" transform="translate(176.839 26.542)"/><g transform="translate(158.283 60.162)"><path class="l" d="M23.8,84.824s34.567,32.573,51.851,26.59c15.954-5.983,16.619-55.839,12.63-59.828-.665-.665-1.33-.665-1.994-1.33-7.977-5.318-13.3,5.983-14.625,15.954-1.994,13.96-3.989,31.243-6.648,30.579C55.043,92.8,35.766,80.835,35.766,80.835l-9.307,3.988Z" transform="translate(-23.8 -48.895)"/><path class="m" d="M23.8,83.667s34.567,32.573,51.851,26.59C91.6,104.274,92.269,54.418,88.281,50.43c-.665-.665-1.33-.665-1.994-1.33,1.994,7.977.665,21.937,0,30.579-.665,10.636-5.318,21.272-9.971,25.261-4.653,3.324-13.96,0-24.6-4.653C41.748,95.633,31.112,86.991,25.794,83Z" transform="translate(-23.8 -47.739)"/></g><path class="ad" d="M14.4,154.395l3.324,3.324S54.285,139.77,68.91,127.8c19.943-16.619,47.2-35.232,57.833-45.2,9.971-8.642,9.307-17.948,8.642-22.6-.665,2.659-3.989,2.659-3.989,2.659-1.994,0-3.324-.665-4.653-.665-.665,5.318-2.659,13.96-9.307,19.943-7.312,7.312-23.931,20.607-35.9,29.249-11.3,9.307-18.613,16.619-33.9,25.925C34.343,145.088,19.053,151.736,14.4,154.395Z" transform="translate(81.396 73.981)"/><path class="ae" d="M3.9,105.524l3.324,2.659s14.625-3.988,32.573-7.312S62.4,88.24,85.664,82.257c23.931-5.983,52.515-17.948,56.5-17.948,4.653,0,7.312,1.329,10.636,3.324-.665-1.329-3.324-4.653-9.971-6.647S119.567,66.3,100.289,71.621s-33.9,11.3-41.879,15.954A132.858,132.858,0,0,1,21.848,102.2,78.792,78.792,0,0,0,3.9,105.524Z" transform="translate(22.097 77.649)"/><g transform="translate(87.779 206.969)"><path class="af" d="M15.228,99.034c3.989,2.659,9.307-3.324,9.307-3.324l1.33-1.329a76.361,76.361,0,0,1,6.648-5.318c4.653-3.324,8.642-9.971,6.648-14.625-2.659-5.983-9.307-3.324-13.3,1.33-2.659,3.324-5.983,6.647-9.307,11.3h0C13.9,92.387,11.239,96.375,15.228,99.034Z" transform="translate(-13.194 -70.98)"/><path class="af" d="M15.228,84.8c3.989,2.659,9.307-3.324,9.307-3.324l1.33-1.329c-1.994-1.33-6.648-4.653-9.307-6.648C13.9,78.153,11.239,82.142,15.228,84.8Z" transform="translate(-13.194 -56.746)"/></g><g transform="translate(0 168.382)"><path class="af" d="M10.7,81.295C20,89.272,22,89.937,24.657,89.272a3.562,3.562,0,0,0,2.659-1.994,36.14,36.14,0,0,0,2.659-5.318C25.986,79.965,4.714,63.347,2.055,65.341.726,66.67.061,67.335.061,68-.6,70.659,3.385,75.312,10.7,81.295Z" transform="translate(0.011 -65.175)"/><path class="af" d="M10.7,79.46C20,87.437,22,88.1,24.657,87.437a3.562,3.562,0,0,0,2.659-1.994c-3.989-1.994-7.977-4.653-16.619-9.971A39.1,39.1,0,0,1,.061,65.5C-.6,68.824,3.385,73.477,10.7,79.46Z" transform="translate(0.011 -63.34)"/></g></g></g></svg>